# xmcd
# 
# Track frame offsets:
#     187
#     18030
#     40062
#     59865
#     78387
#     100382
#     119637
#     139580
#     164112
#     190625
# 
# Disc length: 2866
# 
# Revision: 4
# Processed by: cddbd v1.5.2PL0 Copyright (c) Steve Scherf et al.
# Submitted via: fre:ac v1.0.17
# 
DISCID=880b300a
DTITLE=福山雅治 - M-Collection 風をさがしている Disc-1
DYEAR=1995
DGENRE=JPop
TTITLE0=追憶の雨の中
TTITLE1=かなしみは・・・
TTITLE2=アクセス
TTITLE3=Radio Days〜1943・・・〜
TTITLE4=風をさがしてる
TTITLE5=逃げられない
TTITLE6=WOH WOW
TTITLE7=ただ僕がかわった
TTITLE8=Good night
TTITLE9=ひとりきり歩いてく帰り道で
EXTD=YEAR: 1995
EXTT0=
EXTT1=
EXTT2=
EXTT3=
EXTT4=
EXTT5=
EXTT6=
EXTT7=
EXTT8=
EXTT9=
PLAYORDER=
